HIERARCHY
ROOT Hips
{
    OFFSET 0.000000 0.000000 0.000000
    CHANNELS 6 Xposition Yposition Zposition Zrotation Xrotation Yrotation
    JOINT Spine
    {
        OFFSET -0.000000 7.236184 0.000000
        CHANNELS 3 Zrotation Xrotation Yrotation
        JOINT Spine1
        {
            OFFSET -0.000000 20.420147 0.000000
            CHANNELS 3 Zrotation Xrotation Yrotation
            JOINT Neck
            {
                OFFSET -0.000000 20.336288 1.848754
                CHANNELS 3 Zrotation Xrotation Yrotation
                JOINT Head
                {
                    OFFSET -0.000000 12.354461 -1.764923
                    CHANNELS 3 Zrotation Xrotation Yrotation
                    End Site
                    {
                        OFFSET -0.000000 22.061537 0.000000
                    }
                }
            }
            JOINT LeftShoulder
            {
                OFFSET 3.573296 18.396038 -0.314103
                CHANNELS 3 Zrotation Xrotation Yrotation
                JOINT LeftArm
                {
                    OFFSET 10.880760 0.000000 0.000000
                    CHANNELS 3 Zrotation Xrotation Yrotation
                    JOINT LeftForeArm
                    {
                        OFFSET 27.185530 0.000000 0.000000
                        CHANNELS 3 Zrotation Xrotation Yrotation
                        JOINT LeftHand
                        {
                            OFFSET 27.825975 0.000000 0.000000
                            CHANNELS 3 Zrotation Xrotation Yrotation
                            End Site
                            {
                                OFFSET 13.236923 0.000000 0.000000
                            }
                        }
                    }
                }
            }
            JOINT RightShoulder
            {
                OFFSET -3.474926 18.396038 -0.314103
                CHANNELS 3 Zrotation Xrotation Yrotation
                JOINT RightArm
                {
                    OFFSET -10.880760 0.000000 0.000000
                    CHANNELS 3 Zrotation Xrotation Yrotation
                    JOINT RightForeArm
                    {
                        OFFSET -27.185530 0.000000 0.000000
                        CHANNELS 3 Zrotation Xrotation Yrotation
                        JOINT RightHand
                        {
                            OFFSET -27.825975 0.000000 0.000000
                            CHANNELS 3 Zrotation Xrotation Yrotation
                            End Site
                            {
                                OFFSET -13.236923 0.000000 0.000000
                            }
                        }
                    }
                }
            }
        }
    }
    JOINT LeftUpLeg
    {
        OFFSET 8.824615 0.000000 0.000000
        CHANNELS 3 Zrotation Xrotation Yrotation
        JOINT LeftLeg
        {
            OFFSET -0.000000 -35.111282 0.000000
            CHANNELS 3 Zrotation Xrotation Yrotation
            JOINT LeftFoot
            {
                OFFSET -0.000000 -42.324711 0.000000
                CHANNELS 3 Zrotation Xrotation Yrotation
                JOINT LeftToeBase
                {
                    OFFSET -0.000000 -5.735999 13.236923
                    CHANNELS 3 Zrotation Xrotation Yrotation
                    End Site
                    {
                        OFFSET -0.000000 0.000000 3.529846
                    }
                }
            }
        }
    }
    JOINT RightUpLeg
    {
        OFFSET -8.824615 0.000000 0.000000
        CHANNELS 3 Zrotation Xrotation Yrotation
        JOINT RightLeg
        {
            OFFSET -0.000000 -35.111282 0.000000
            CHANNELS 3 Zrotation Xrotation Yrotation
            JOINT RightFoot
            {
                OFFSET -0.000000 -42.324711 0.000000
                CHANNELS 3 Zrotation Xrotation Yrotation
                JOINT RightToeBase
                {
                    OFFSET -0.000000 -5.735999 13.236923
                    CHANNELS 3 Zrotation Xrotation Yrotation
                    End Site
                    {
                        OFFSET -0.000000 0.000000 3.529846
                    }
                }
            }
        }
    }
}
MOTION
Frames:    12
Frame Time:    0.008333
-22.711283    83.094803    112.320900    -2.309851    -8.226295    -176.618134    -3.422638    -13.146379    -0.394512    -0.038321    6.722489    -0.009277    1.176404    7.690745    -4.403765    7.945436    -10.205525    -2.853935    -0.978079    16.893135    -3.118221    -40.375675    48.869553    -42.497940    0.165084    -4.371893    -17.061588    18.031521    -4.251242    0.606510    7.889924    18.632463    -4.079769    31.515911    48.239136    46.543209    -1.006864    -5.740209    16.751026    -16.275648    -5.212085    -2.673020    -1.734953    -12.660512    -7.384705    0.115107    16.233316    -0.046999    -2.321396    -9.624565    -6.785441    -0.155829    -0.620345    0.172925    -2.835372    -5.935012    2.326784    2.790406    7.725061    4.062811    -2.455280    -7.122805    -14.429112    -1.162155    -0.465985    1.257761    
-22.713037    83.095619    112.321114    -2.308208    -8.256369    -176.552612    -3.414012    -13.143389    -0.393429    -0.029696    6.746367    0.016701    1.161830    7.592775    -4.412157    7.903519    -10.273509    -2.867649    -0.992810    16.898113    -3.112803    -40.385777    48.779953    -42.478352    0.144619    -4.359405    -17.079659    17.987146    -4.237733    0.633724    7.887631    18.641966    -4.036127    31.430307    48.324654    46.582985    -1.016388    -5.846339    16.909416    -16.216774    -5.313704    -2.695481    -1.739204    -12.688781    -7.406637    0.104741    16.216185    -0.034471    -2.330206    -9.607162    -6.840851    -0.153912    -0.612044    0.170795    -2.849598    -5.944587    2.251910    2.796464    7.708635    4.061975    -2.445089    -7.134420    -14.418127    -1.165522    -0.463856    1.261401    
-22.714817    83.096405    112.321243    -2.306544    -8.285243    -176.489075    -3.405701    -13.140937    -0.372616    -0.019402    6.769882    0.021330    1.147784    7.498498    -4.420047    7.865355    -10.337182    -2.880291    -1.006518    16.902529    -3.108084    -40.397926    48.690281    -42.456898    0.124079    -4.347849    -17.100801    17.940434    -4.225172    0.661173    7.885112    18.651136    -3.994639    31.350662    48.402187    46.618916    -1.022535    -5.950322    17.067608    -16.158306    -5.413956    -2.715801    -1.743483    -12.715822    -7.428466    0.094472    16.199635    -0.020817    -2.338528    -9.590459    -6.895436    -0.152013    -0.603887    0.168685    -2.863232    -5.953659    2.179130    2.802145    7.692975    4.060955    -2.435304    -7.145575    -14.407124    -1.168666    -0.461941    1.264801    
-22.716824    83.097244    112.321243    -2.304715    -8.314426    -176.423325    -3.397264    -13.138636    -0.360074    -0.010594    6.794312    0.033804    1.134036    7.402164    -4.427648    7.830185    -10.398690    -2.892153    -1.019862    16.905933    -3.103659    -40.415363    48.592621    -42.429413    0.101668    -4.336915    -17.130478    17.884964    -4.213081    0.691969    7.882362    18.659920    -3.953583    31.275415    48.472912    46.649586    -1.023555    -6.060428    17.240974    -16.094997    -5.521370    -2.734182    -1.748260    -12.742982    -7.452140    0.083534    16.182745    -0.002783    -2.346718    -9.573556    -6.954682    -0.150198    -0.595347    0.166668    -2.876919    -5.962632    2.103674    2.807460    7.677415    4.059100    -2.425094    -7.157078    -14.394831    -1.171991    -0.459877    1.268395    
-22.719017    83.098129    112.321114    -2.302711    -8.342718    -176.358200    -3.389107    -13.136981    -0.347250    -0.002817    6.818661    0.044086    1.121644    7.308463    -4.434573    7.800851    -10.454094    -2.902429    -1.031732    16.907953    -3.100340    -40.439270    48.488754    -42.394592    0.077997    -4.327373    -17.171528    17.819611    -4.202207    0.725585    7.879303    18.667612    -3.915054    31.210487    48.530979    46.670845    -1.018181    -6.173354    17.426840    -16.027500    -5.633078    -2.749112    -1.753283    -12.769246    -7.476807    0.072064    16.166374    0.020363    -2.354460    -9.557204    -7.017276    -0.148458    -0.586879    0.164735    -2.889870    -5.971201    2.029756    2.812113    7.662467    4.055451    -2.414813    -7.168109    -14.381604    -1.175155    -0.457874    1.271816    
-22.721476    83.099060    112.320877    -2.300486    -8.370416    -176.292892    -3.381158    -13.135943    -0.335246    0.003794    6.843129    0.053542    1.110474    7.217210    -4.440999    7.778140    -10.504727    -2.911076    -1.042089    16.908360    -3.098300    -40.471428    48.375523    -42.350266    0.052621    -4.319016    -17.227821    17.740183    -4.192323    0.763045    7.875736    18.673767    -3.878865    31.156307    48.576389    46.681236    -1.006376    -6.291854    17.631737    -15.953558    -5.751908    -2.760143    -1.758798    -12.794856    -7.502506    0.060084    16.150421    0.051070    -2.361988    -9.541234    -7.086466    -0.146698    -0.578623    0.162780    -2.902368    -5.979311    1.958456    2.816629    7.647747    4.049368    -2.404487    -7.178791    -14.368738    -1.178154    -0.456138    1.275058    
-22.724270    83.100067    112.320541    -2.298094    -8.397764    -176.226608    -3.373535    -13.135625    -0.325200    0.009109    6.868040    0.063238    1.100977    7.128016    -4.447135    7.761665    -10.551051    -2.918358    -1.050722    16.906662    -3.097725    -40.512840    48.250404    -42.294533    0.025290    -4.311328    -17.304302    17.643114    -4.182915    0.805013    7.871204    18.677597    -3.845242    31.113176    48.609734    46.679695    -0.988995    -6.417938    17.861923    -15.870279    -5.879881    -2.766860    -1.765092    -12.820019    -7.529304    0.047521    16.134609    0.091216    -2.369421    -9.525322    -7.164890    -0.144967    -0.570511    0.160856    -2.914421    -5.987100    1.890470    2.820836    7.633167    4.038762    -2.393760    -7.189209    -14.355552    -1.180923    -0.454673    1.278052    
-22.727478    83.101021    112.319946    -2.295909    -8.424053    -176.159103    -3.366549    -13.135394    -0.315713    0.013057    6.893287    0.071526    1.093182    7.041635    -4.453293    7.751979    -10.593391    -2.924452    -1.057460    16.902676    -3.099060    -40.563835    48.112274    -42.226349    -0.003483    -4.303436    -17.404943    17.525446    -4.173111    0.851267    7.865678    18.678446    -3.814229    31.081608    48.631168    46.664986    -0.967087    -6.551630    18.121231    -15.776357    -6.017004    -2.768296    -1.772705    -12.843837    -7.557188    0.034406    16.118925    0.142120    -2.376851    -9.509476    -7.254080    -0.143216    -0.562893    0.158911    -2.926517    -5.993413    1.827189    2.825101    7.618402    4.023487    -2.382705    -7.199457    -14.343483    -1.183345    -0.454133    1.280673    
-22.731205    83.101830    112.318970    -2.294558    -8.448793    -176.089844    -3.360952    -13.135059    -0.307314    0.015738    6.919276    0.078563    1.087486    6.958916    -4.459740    7.748172    -10.632901    -2.929821    -1.062414    16.896160    -3.102639    -40.623516    47.959709    -42.145332    -0.033431    -4.293457    -17.534288    17.384361    -4.161285    0.900735    7.858665    18.675716    -3.785701    31.061031    48.641560    46.636814    -0.942179    -6.693153    18.413965    -15.670085    -6.163378    -2.763819    -1.782473    -12.865554    -7.586464    0.020810    16.103191    0.205425    -2.384527    -9.493553    -7.355986    -0.141267    -0.555658    0.156747    -2.939428    -5.997498    1.768381    2.829562    7.603283    4.003379    -2.371412    -7.209558    -14.332730    -1.185169    -0.453897    1.282647    
-22.735537    83.102333    112.317421    -2.294403    -8.471246    -176.018311    -3.356829    -13.133762    -0.300883    0.016485    6.945946    0.085069    1.084218    6.879904    -4.466849    7.749884    -10.669775    -2.934891    -1.064978    16.886269    -3.108755    -40.691795    47.792591    -42.051018    -0.063215    -4.279417    -17.696598    17.217449    -4.145569    0.951551    7.850167    18.668755    -3.759448    31.050180    48.642632    46.595570    -0.916028    -6.843208    18.744225    -15.550501    -6.319530    -2.752712    -1.795065    -12.884089    -7.616847    0.007250    16.086956    0.281441    -2.392754    -9.477326    -7.471769    -0.139139    -0.548965    0.154384    -2.953485    -5.998469    1.713264    2.834025    7.588188    3.979040    -2.359728    -7.219927    -14.323535    -1.186198    -0.455010    1.283762    
-22.740507    83.102470    112.315178    -2.295662    -8.490979    -175.944260    -3.354406    -13.131379    -0.295535    0.015417    6.973526    0.089977    1.083960    6.805213    -4.474845    7.755509    -10.704614    -2.940361    -1.064955    16.872488    -3.117664    -40.766037    47.611843    -41.944874    -0.091575    -4.259862    -17.895613    17.023607    -4.124934    1.000418    7.839460    18.657326    -3.735204    31.047073    48.636028    46.542599    -0.890150    -7.003001    19.115221    -15.416935    -6.486412    -2.735031    -1.810587    -12.898802    -7.648493    -0.006350    16.070045    0.369542    -2.401526    -9.460751    -7.600901    -0.136719    -0.542870    0.151697    -2.969035    -5.995756    1.661192    2.838652    7.573185    3.951623    -2.347698    -7.230694    -14.316714    -1.186105    -0.457187    1.283665    
-22.746172    83.102180    112.312187    -2.298535    -8.507530    -175.867249    -3.353671    -13.126986    -0.291616    0.012270    7.001671    0.093647    1.086278    6.734769    -4.484171    7.765267    -10.737481    -2.946545    -1.062289    16.854324    -3.129755    -40.843342    47.417786    -41.828110    -0.117161    -4.234021    -18.136013    16.801584    -4.099009    1.043509    7.826325    18.641264    -3.712268    31.049435    48.623547    46.479004    -0.866001    -7.175555    19.531492    -15.268563    -6.666793    -2.710730    -1.829451    -12.908816    -7.680876    -0.018980    16.051712    0.467242    -2.411230    -9.443485    -7.741941    -0.134027    -0.537573    0.148708    -2.986261    -5.988970    1.611243    2.843276    7.558769    3.921995    -2.335571    -7.242133    -14.312644    -1.184517    -0.461222    1.281954    
